<?xml version="1.0" encoding="utf-8"?>
<!-- Generator: Adobe Illustrator 24.1.3, SVG Export Plug-In . SVG Version: 6.00 Build 0)  -->
<svg version="1.1" id="Layer_1" xmlns="http://www.w3.org/2000/svg" xmlns:xlink="http://www.w3.org/1999/xlink" x="0px" y="0px"
	 viewBox="0 0 652.4 631" style="enable-background:new 0 0 652.4 631;" xml:space="preserve">
<style type="text/css">
	.st0{fill:#673AB7;}
</style>
<g id="Layer_2_1_">
	<g id="Layer_2-2">
		<path class="st0" d="M233.8,443.1H585c14.4,0,26,11.6,26,26l0,0l0,0c0,14.4-11.6,26-26,26l0,0H228.3c-9.3,0.1-18.4-2.2-26.6-6.5
			c-0.5-0.3-1.1-0.6-1.6-0.9c-19.2-11.1-31-31.6-31-53.7v-0.1c0-5.7,1.1-11.3,3.2-16.5l7-17.4l12.4-31.1c1.6-4,2-8.4,1.2-12.6
			l-46-238.6L134,52l0,0H26.6C12.3,52,0.2,40.7,0,26.4C-0.2,12.1,11.2,0.2,25.6,0c0.1,0,0.3,0,0.4,0h126.7c14,0,26.1,9.9,28.8,23.7
			L187,52l5.3,27l0,0h440c11.1,0,20.1,9,20.1,20.1c0,1.3-0.1,2.6-0.4,3.8L609,342l0,0c-6,19-23.5,30-43.7,30H246.4l0,0l-22.6,56.4
			c-2.2,5.5,0.4,11.8,5.9,14C231,442.9,232.4,443.1,233.8,443.1z"/>
		<path class="st0" d="M170,422.8c-0.7,3.7-1,7.4-1,11.2c0,3.1,0.2,6.1,0.7,9.1L170,422.8z"/>
		<path class="st0" d="M179.2,400l-9.2,22.8"/>
		<path class="st0" d="M200,487.7c6.4,3.7,13.3,6.2,20.6,7.4L200,487.7z"/>
		<circle class="st0" cx="258" cy="578" r="53"/>
		<circle class="st0" cx="537" cy="578" r="53"/>
	</g>
</g>
</svg>
